<svg xmlns="http://www.w3.org/2000/svg" width="230.988" height="281.425" viewBox="0 0 230.988 281.425">
  <g id="Group_337" data-name="Group 337" transform="translate(-163.428 -357.601)">
    <g id="Group_326" data-name="Group 326" transform="translate(240.339 516.562)">
      <path id="Path_477" data-name="Path 477" d="M277.779,443.956H183.531l47.025-15.336h95.56l-.351,1.013-45.435,13.92A8.264,8.264,0,0,1,277.779,443.956Z" transform="translate(-183.531 -372.848)" fill="#0c877e"/>
      <path id="Path_478" data-name="Path 478" d="M275.929,442.351H183.822l46.146-13.73h93.419l-44.906,13.328A8.263,8.263,0,0,1,275.929,442.351Z" transform="translate(-182.942 -372.848)" fill="#c5e6ef"/>
      <path id="Path_479" data-name="Path 479" d="M252.712,438.5H191.585l30.623-9.11h62l-29.8,8.844A5.522,5.522,0,0,1,252.712,438.5Z" transform="translate(-167.233 -371.302)" fill="#71c9c4" opacity="0.55"/>
      <path id="Path_480" data-name="Path 480" d="M294.644,465.948h-95.56l12.046-52.84a4.509,4.509,0,0,1,4.357-2.933h86.15c3,0,5.164,2.6,4.312,5.2Z" transform="translate(-152.059 -410.175)" fill="#0c877e"/>
      <path id="Path_481" data-name="Path 481" d="M292.5,465.948H199.084l12.046-52.84a4.509,4.509,0,0,1,4.357-2.933h84.007c3.005,0,5.164,2.6,4.315,5.2Z" transform="translate(-152.059 -410.175)" fill="#17a59e"/>
      <path id="Path_482" data-name="Path 482" d="M285.027,460.454H200.739l10.839-49.166a.04.04,0,0,1,.039-.024h84.258Z" transform="translate(-148.71 -407.971)" fill="#c5e6ef"/>
      <path id="Path_483" data-name="Path 483" stroke="#95c6c6" d="M267.094,449.716h-62.24l8.006-36.3a.029.029,0,0,1,.027-.021h62.219Z" fill="none" transform="translate(-140.383 -403.667)" stroke-linecap="round" stroke-linejoin="round" stroke-width="0.5" stroke-dasharray="2 2.5"/>
      <line id="Line_64" data-name="Line 64" x2="76.67" transform="translate(24.352 64.695)" fill="none" stroke="#c5e6ef" stroke-miterlimit="10" stroke-width="0.5"/>
      <line id="Line_65" data-name="Line 65" x2="76.67" transform="translate(38.488 60.772)" fill="none" stroke="#c5e6ef" stroke-miterlimit="10" stroke-width="0.25"/>
      <path id="Path_484" data-name="Path 484" d="M188.96,432.79c3.2-2.655,8.838-3.281,12.962-3.852a67.564,67.564,0,0,1,12.466-.181c2.4.112,1.784,2.9-.278,3.241a24.109,24.109,0,0,1-7.133.115,11.391,11.391,0,0,1-6.283,4.163,25.582,25.582,0,0,1-7.619.729c-.72-.015-1.627-.193-1.775-.9" transform="translate(-172.545 -372.974)" fill="#f39f86"/>
      <g id="Group_325" data-name="Group 325" transform="translate(84.265 9.725)">
        <line id="Line_66" data-name="Line 66" x1="17.53" y1="17.53" transform="translate(15.288 0.852)" fill="none" stroke="#fff" stroke-miterlimit="10" stroke-width="0.25"/>
        <path id="Path_485" data-name="Path 485" d="M222.365,419.582a.852.852,0,1,1,0,1.2A.854.854,0,0,1,222.365,419.582Z" transform="translate(-189.718 -401.37)" fill="#fff"/>
        <path id="Path_486" data-name="Path 486" d="M220.187,421.56a.852.852,0,1,1,0,1.206A.85.85,0,0,1,220.187,421.56Z" transform="translate(-194.125 -397.367)" fill="#fff"/>
        <path id="Path_487" data-name="Path 487" d="M214.168,415.541a.853.853,0,1,1,0,1.206A.854.854,0,0,1,214.168,415.541Z" transform="translate(-206.305 -409.547)" fill="#fff"/>
        <path id="Path_488" data-name="Path 488" d="M216.426,413.641a.852.852,0,1,1,0,1.206A.85.85,0,0,1,216.426,413.641Z" transform="translate(-201.74 -413.391)" fill="#fff"/>
        <path id="Path_489" data-name="Path 489" d="M214.2,416.356s8.563-4.006,15.384,2.815,2.815,15.381,2.815,15.381" transform="translate(-205.736 -409.757)" fill="none" stroke="#fff" stroke-miterlimit="10" stroke-width="0.25"/>
        <g id="Group_323" data-name="Group 323" transform="translate(3.763 9.378)">
          <g id="Group_322" data-name="Group 322">
            <path id="Path_490" data-name="Path 490" d="M221.386,418.253l11.314-1.76-8.714,9.406a2.57,2.57,0,1,0,.024.024l-.018-.015,9.143-8.98s-1.333,7.819-1.787,11.7a142.186,142.186,0,0,0-13.712,8.378c-.451.333-5.182-4.587-4.986-4.835C215.617,428.418,221.386,418.253,221.386,418.253Z" transform="translate(-212.645 -416.493)" fill="#fff"/>
          </g>
        </g>
        <g id="Group_324" data-name="Group 324" transform="translate(0 22.456)">
          <path id="Path_491" data-name="Path 491" d="M211.668,422.985l1.9-1.9a.909.909,0,0,1,1.288,0l7.634,7.634a.9.9,0,0,1,.042,1.24.283.283,0,0,1-.042.048l-1.9,1.9a.909.909,0,0,1-1.288,0l-7.634-7.635A.909.909,0,0,1,211.668,422.985Z" transform="translate(-211.401 -420.818)" fill="#fff"/>
        </g>
      </g>
      <path id="Path_492" data-name="Path 492" d="M212.217,415.186a2.711,2.711,0,1,1-2.709-2.709A2.71,2.71,0,0,1,212.217,415.186Z" transform="translate(-136.453 -405.517)" fill="#95c6c6"/>
      <path id="Path_493" data-name="Path 493" d="M209.379,427.218a2.711,2.711,0,1,1-2.712-2.709A2.711,2.711,0,0,1,209.379,427.218Z" transform="translate(-142.196 -381.169)" fill="#95c6c6"/>
      <circle id="Ellipse_45" data-name="Ellipse 45" cx="2.709" cy="2.709" r="2.709" transform="translate(123.572 43.34)" fill="#95c6c6"/>
      <path id="Path_494" data-name="Path 494" d="M232.371,415.186a2.711,2.711,0,1,1-2.709-2.709A2.71,2.71,0,0,1,232.371,415.186Z" transform="translate(-95.67 -405.517)" fill="#95c6c6"/>
    </g>
    <path id="Path_495" data-name="Path 495" d="M168.484,432.164c-1.9,6.622-1.482,11.943-2.733,18.719-1.869,10.093-2.612,21.715,4.185,29.4,4.922,5.566,9.234,7.659,16.663,7.764,6.259.088,12.475-1.022,18.731-1.188,4.2-.112,17.059,1.028,21.256,1.194,18.734.744,29.329-3.4,47.863-5.684a440.928,440.928,0,0,0,48.7-9.781c47.969-13.134,30.6-32.476,19.992-35.563-2.307-.674-12.75-4.154-12.75-4.154l-14.014,3.915H267.3s-20.47-.949-29.235-3" transform="translate(18.213 150.883)" fill="#023d5f"/>
    <path id="Path_496" data-name="Path 496" d="M215.027,423.409a28.274,28.274,0,0,1,2.942,2,34.564,34.564,0,0,0,6.676,3.277q3.361,1.361,6.727,2.724a3.819,3.819,0,0,1,1.3.741,3.743,3.743,0,0,1,.807,1.983c1.394,7.042,2.785,14.356.916,21.785a28.039,28.039,0,0,1-3.94-7.861,8.615,8.615,0,0,0-1.853-3.843,11.015,11.015,0,0,0-2.147-1.355,22.938,22.938,0,0,1-5.938-5.648,3.674,3.674,0,0,1-.974-1.769,2.291,2.291,0,0,0-.139-.729,1.341,1.341,0,0,0-.5-.466l-8.291-5.324" transform="translate(111.61 133.167)" fill="#f39f86"/>
    <path id="Path_497" data-name="Path 497" d="M189.472,523.374c-3.858-2.851-8.061-6.047-12.058-9.385-9.1-7.643-17.234-15.949-18.244-21.993-2.222-13.552-.484-53.826.593-72.832.033-1.149.1-2.225.172-3.232,1.079-17.966,10.737-25.921,15.568-28.842,2.467,23.351,8.028,76.064,8.478,78.773C184.571,469.34,189.472,523.374,189.472,523.374Z" transform="translate(5.334 59.673)" fill="#2dc1bd"/>
    <path id="Path_498" data-name="Path 498" d="M187.1,505.561c-3.855-2.851-8.061-6.047-12.055-9.385-.345-14.849-5.751-11.623-11.97-37.58-7.383-32.721-1.757-62.7-1.757-62.7l14.837,2.259c2.467,23.109,5.143,48.056,5.458,49.9C182.2,451.527,187.1,505.561,187.1,505.561Z" transform="translate(7.713 77.486)" fill="#17a59e"/>
    <path id="Path_499" data-name="Path 499" d="M173.524,430.556s3.178-10.767,1.787-18.713-6.159-22.251-4.369-32.978,15.3-19.668,29.6-18.277,18.477,15.1,20.86,23.043,1.986,20.067,1.391,26.622-4.172,11.722-6.555,13.113-11.353-.445-12.929,1.267-2.767,11.846-2.767,11.846" transform="translate(30.529 5.754)" fill="#f39f86"/>
    <path id="Path_500" data-name="Path 500" d="M169.3,393.454s.8-6.28,3.178-8.505,18.277-2.225,23.046-1.627,16.524,6.077,18.078,7.235-1.512,7.19-1.512,7.19Z" transform="translate(28.002 51.362)" fill="#2dc1bd"/>
    <path id="Path_501" data-name="Path 501" d="M178.31,422.762s19.868,1.69,23.641,0,9.237-5.364,9.736-12.118-.895-8.841,1.687-12.614,4.868-2.485,5.267,1.092.553,10.035,1.488,10.51c1.267.641,2.773-3.906,2.286-10.806-.423-5.987-1.091-10.631-2.881-14.6s-2.754-3.749-4.369-4.469c1.739-.847,3.616-.946,7.051-6.307,3.979-6.21,1.79-15.886-8.741-15.843-18.392.066-37.946,3.674-38.342,17.283,0,0-6.458-.995-6.655,11.423s7.746,27.418,8.342,31.291S176.324,421.87,178.31,422.762Z" transform="translate(26.338 0)" fill="#023d5f"/>
    <path id="Path_502" data-name="Path 502" d="M250.926,512.165c.732,6.219,6.186,15.844,2.467,17.2-1.494.523-7.574.175-15.012-.451h-.206c-.139,0-.245-.033-.348-.033-6.6-.559-14.144-1.288-20.47-1.775-25.259-1.076-38.151,3.964-40.688,2.537-1.215-.729-1.252-2.918-.868-5.176a58.89,58.89,0,0,0,.417-16.748c-.626-4.693-1.5-10.286-2.712-16.681-4.17-22.132-12.336-55.945-13.552-76.272-1.947-31.862,32.177-28.842,32.177-28.842,43.437-2.709,63.833,9.8,66.195,28.461.175,1.318.278,2.745.384,4.239,1.11,19.251-4.762,50.315-7.541,73.527A116.99,116.99,0,0,0,250.926,512.165Z" transform="translate(8.939 56.565)" fill="#2dc1bd"/>
    <path id="Path_503" data-name="Path 503" d="M198.385,491.849c.732,6.219,6.186,15.844,2.467,17.2-1.494.523-7.574.175-15.012-.451,6.709.487,7.958-4.656,6.464-8.1A49.13,49.13,0,0,1,188,479.93c.311-9.243,3.789-30.094,5.838-49.8a160.3,160.3,0,0,0,.033-34.541c1.043,2.086,4.03,5,12.439,6.951.175,19.354-5.107,47.709-7.677,69.288A116.991,116.991,0,0,0,198.385,491.849Z" transform="translate(61.48 76.881)" fill="#17a59e"/>
    <path id="Path_504" data-name="Path 504" d="M182.924,387.186s19.91-1.587,28.67,5.769c6.987,5.869,20.436,80.155,20.436,80.155L213.438,480.8s-20.255-50.775-25.537-49.985" transform="translate(55.579 59.577)" fill="#2dc1bd"/>
    <path id="Path_505" data-name="Path 505" d="M192.77,422.963c6.319,19.992,57.874,27.557,57.874,27.557l2.875-9.18s-31.487-23.445-42.847-26.626" transform="translate(75.503 115.574)" fill="#2dc1bd"/>
    <path id="Path_506" data-name="Path 506" d="M214.789,433.788q6.889.377,13.766,1.019" transform="translate(120.06 154.169)" fill="none" stroke="#062f44" stroke-miterlimit="10" stroke-width="1"/>
    <path id="Path_507" data-name="Path 507" d="M298.9,446.775c-17.092-.832-33.985,3.241-50.914,5.727s-34.877,3.262-50.5-3.719a8.866,8.866,0,0,0-4.118-1.14c-1.621.112-3,1.161-4.321,2.107a24.912,24.912,0,0,1-9.228,4.481c-4.765,1-6.138-.181-10.939-.98a2.1,2.1,0,0,0-1.409.1c-.115.07-.13.188-.206.278,4.8,3.547,7.586,4.995,13.651,5.08,6.259.088,12.475-1.022,18.731-1.188,4.2-.112,17.059,1.028,21.256,1.194,18.734.744,29.329-3.4,47.863-5.684,7.689-.953,19.157-3.048,29.8-5.309A2.406,2.406,0,0,0,298.9,446.775Z" transform="translate(23.894 180.226)" fill="#062f44"/>
  </g>
</svg>
