<svg xmlns="http://www.w3.org/2000/svg" width="186.935" height="70" viewBox="0 0 186.935 70"><g transform="translate(-20.358 -8.158)"><path d="M27.532,24.975V44.033a1.5,1.5,0,0,1-.462,1.13,1.532,1.532,0,0,1-1.07.474H21.9a1.507,1.507,0,0,1-1.082-.462,1.543,1.543,0,0,1-.462-1.13V9.016A.729.729,0,0,1,21,8.226a1.216,1.216,0,0,1,1.106.28L44.584,29.751c.34.3.62.413.839.3s.34-.365.34-.814V9.782a1.58,1.58,0,0,1,1.58-1.58h4A1.58,1.58,0,0,1,52.934,9.77V44.75a.73.73,0,0,1-.644.8,1.359,1.359,0,0,1-1.215-.28L28.71,24.379q-.51-.425-.839-.255C27.641,24.221,27.532,24.5,27.532,24.975Z" transform="translate(0 0.007)" fill="#fff"/><path d="M51.394,44.246,69.176,8.768A1.034,1.034,0,0,1,70.2,8.161a1.046,1.046,0,0,1,1.021.608L88.975,44.246a.949.949,0,0,1,.073.972.937.937,0,0,1-.9.413H83.493a2.426,2.426,0,0,1-1.337-.413,2.165,2.165,0,0,1-.912-1.021L79.7,41.123a2.782,2.782,0,0,0-.948-.972,2.428,2.428,0,0,0-1.3-.4H62.868a2.558,2.558,0,0,0-1.337.4,2.268,2.268,0,0,0-.924,1.033L59.124,44.2a2.548,2.548,0,0,1-.948,1.021,2.348,2.348,0,0,1-1.3.413H52.257a.913.913,0,0,1-.887-.413A1.022,1.022,0,0,1,51.394,44.246Zm15-10.757h7.572a.912.912,0,0,0,.9-.438,1.07,1.07,0,0,0,0-1l-3.987-8.447c-.182-.413-.4-.62-.668-.62s-.5.207-.668.62l-4.047,8.508a1.085,1.085,0,0,0,0,1.021A.987.987,0,0,0,66.392,33.49Z" transform="translate(6.657 0)" fill="#fff"/><path d="M106.2,14.5H98.678a1.557,1.557,0,0,0-1.13.462,1.53,1.53,0,0,0-.462,1.118V44.039a1.5,1.5,0,0,1-.462,1.13,1.53,1.53,0,0,1-1.118.462h-4a1.53,1.53,0,0,1-1.118-.462,1.5,1.5,0,0,1-.462-1.13V16.085a1.53,1.53,0,0,0-.462-1.118,1.583,1.583,0,0,0-1.13-.462H80.762a1.58,1.58,0,0,1-1.592-1.568V9.74a1.583,1.583,0,0,1,.462-1.13,1.536,1.536,0,0,1,1.13-.45H106.2a1.536,1.536,0,0,1,1.13.45,1.583,1.583,0,0,1,.462,1.13v3.172a1.58,1.58,0,0,1-1.568,1.592Z" transform="translate(12.67 0)" fill="#fff"/><path d="M113.191,45.635h-4.047a1.472,1.472,0,0,1-1.106-.462,1.564,1.564,0,0,1-.438-1.13V9.78a1.558,1.558,0,0,1,.438-1.118,1.419,1.419,0,0,1,1.106-.462h4.047a1.481,1.481,0,0,1,1.118.462,1.53,1.53,0,0,1,.462,1.118V44.031a1.58,1.58,0,0,1-1.556,1.6Z" transform="translate(18.794 0.009)" fill="#fff"/><path d="M153.444,9.635l-16.372,35.32a1,1,0,0,1-.984.571.971.971,0,0,1-.972-.571L118.793,9.635a1.109,1.109,0,0,1,0-1.033.949.949,0,0,1,.863-.4h4.764a2.607,2.607,0,0,1,1.337.4,2.235,2.235,0,0,1,.912,1.033l8.763,18.839c.17.377.389.559.656.559s.5-.182.668-.559L145.52,9.635a2.235,2.235,0,0,1,.912-1.033,2.581,2.581,0,0,1,1.337-.4h4.764a1,1,0,0,1,.912.4A1.032,1.032,0,0,1,153.444,9.635Z" transform="translate(21.178 0.008)" fill="#fff"/><path d="M158.621,16.085v6.2a1.58,1.58,0,0,0,1.568,1.592h15.023a1.556,1.556,0,0,1,1.58,1.531v3.379a1.536,1.536,0,0,1-.45,1.13,1.583,1.583,0,0,1-1.13.462h-14.95a1.5,1.5,0,0,0-1.13.462,1.53,1.53,0,0,0-.462,1.118V37.6a1.53,1.53,0,0,0,.462,1.118,1.5,1.5,0,0,0,1.13.462h17.247a1.58,1.58,0,0,1,1.544,1.6v3.269a1.58,1.58,0,0,1-1.568,1.592H153.042a1.583,1.583,0,0,1-1.13-.462,1.543,1.543,0,0,1-.462-1.13V9.74a1.556,1.556,0,0,1,1.53-1.58h24.48a1.535,1.535,0,0,1,1.13.45,1.583,1.583,0,0,1,.462,1.13v3.172a1.58,1.58,0,0,1-1.568,1.592H160.213a1.58,1.58,0,0,0-1.592,1.568Z" transform="translate(28.24 0)" fill="#fff"/><path d="M24.148,51.6a8.8,8.8,0,0,1,6.49,2.334,8.69,8.69,0,0,1,.01,12.29l-.01.01a8.836,8.836,0,0,1-6.49,2.321H21V51.6Zm-2.188.984v15h2.176a7.959,7.959,0,0,0,5.773-2.042,7.73,7.73,0,0,0,.007-10.932l-.007-.007a8,8,0,0,0-5.773-2.03Z" transform="translate(0.138 9.356)" fill="#fff"/><path d="M43.649,51.6v.948H36.174V59.6H43.7v1H36.174v7.037H43.7v.96H35.19V51.6Z" transform="translate(3.195 9.359)" fill="#fff"/><path d="M51.5,59.2a7.179,7.179,0,0,1-2.868-1.641A3.51,3.51,0,0,1,47.591,55a3.647,3.647,0,0,1,3.646-3.573,3.512,3.512,0,0,1,2.552,1.057,3.154,3.154,0,0,1,.8,1.215l-.863.34A2.755,2.755,0,0,0,53.1,53.1a2.636,2.636,0,0,0-3.719,0,2.5,2.5,0,0,0-.778,1.872,2.575,2.575,0,0,0,.766,1.872A6.971,6.971,0,0,0,51.31,58.2a8.667,8.667,0,0,1,3.44,2.054,5.023,5.023,0,1,1-7.11,7.1,4.742,4.742,0,0,1-1.41-2.735l.936-.34a3.828,3.828,0,0,0,1.215,2.431,4.1,4.1,0,0,0,6.989-2.893,3.889,3.889,0,0,0-1.215-2.881A7.844,7.844,0,0,0,51.5,59.2Z" transform="translate(5.574 9.322)" fill="#fff"/><path d="M59.57,51.6V68.555h-.96V51.6Z" transform="translate(8.24 9.359)" fill="#fff"/><path d="M78.226,66.491A8.023,8.023,0,0,1,72.453,68.8,8.69,8.69,0,1,1,78.3,53.693l-.729.656a7.712,7.712,0,1,0-5.117,13.479,7.469,7.469,0,0,0,4.862-1.677V60.985h.948Z" transform="translate(9.348 9.32)" fill="#fff"/><path d="M81.215,51.6,92.495,67.4V51.6h.875V68.555H91.923L80.9,53.131V68.555H80V51.6Z" transform="translate(12.848 9.359)" fill="#fff"/><path d="M107.783,59.2a7.053,7.053,0,0,1-2.856-1.641A3.473,3.473,0,0,1,103.869,55a3.647,3.647,0,0,1,3.646-3.573,3.488,3.488,0,0,1,2.54,1.057,2.915,2.915,0,0,1,.8,1.215l-.863.34a2.892,2.892,0,0,0-.62-.948,2.525,2.525,0,0,0-1.86-.766,2.638,2.638,0,0,0-1.872,4.509A6.829,6.829,0,0,0,107.6,58.2a8.637,8.637,0,0,1,3.427,2.054,5.044,5.044,0,0,1,0,7.11,4.778,4.778,0,0,1-3.537,1.471,4.863,4.863,0,0,1-3.561-1.483,4.742,4.742,0,0,1-1.41-2.735l.9-.328a3.852,3.852,0,0,0,1.215,2.431,4.084,4.084,0,0,0,6.977-2.953,3.927,3.927,0,0,0-1.215-2.881A7.893,7.893,0,0,0,107.783,59.2Z" transform="translate(17.7 9.322)" fill="#fff"/><path d="M119.251,52.548V68.555H118.3V52.548H114V51.6h9.541v.948Z" transform="translate(20.173 9.359)" fill="#fff"/><path d="M135.792,51.6h.96V63.754a5.66,5.66,0,0,1-1.617,3.294,5.542,5.542,0,0,1-9.456-3.914V51.6h.96V63.171a4.386,4.386,0,0,0,1.337,3.233,4.582,4.582,0,0,0,7.815-3.233Z" transform="translate(22.689 9.359)" fill="#fff"/><path d="M142.556,51.6a8.8,8.8,0,0,1,6.49,2.334,8.69,8.69,0,0,1,.01,12.29l-.01.01a8.835,8.835,0,0,1-6.49,2.321H139.42V51.6Zm-2.176.984v15h2.176a7.959,7.959,0,0,0,5.773-2.042,7.73,7.73,0,0,0,.007-10.932l-.007-.007a8,8,0,0,0-5.773-2.018Z" transform="translate(25.649 9.356)" fill="#fff"/><path d="M154.68,51.6V68.555h-.96V51.6Z" transform="translate(28.729 9.359)" fill="#fff"/><path d="M173.635,53.943a8.7,8.7,0,0,1,0,12.307l0,0a8.683,8.683,0,1,1,0-12.251Zm-6.162-1.58a7.741,7.741,0,1,0,5.469,2.261,7.436,7.436,0,0,0-5.494-2.261Z" transform="translate(29.817 9.325)" fill="#fff"/></g></svg>